<?xml version="1.0" encoding="UTF-8"?>
<svg width="179px" height="50px" viewBox="0 0 179 50" version="1.1" xmlns="http://www.w3.org/2000/svg" xmlns:xlink="http://www.w3.org/1999/xlink">
    <title>Group 2</title>
    <g id="Page-1" stroke="none" stroke-width="1" fill="none" fill-rule="evenodd">
        <g id="Landingpage" transform="translate(-133.000000, -33.000000)">
            <g id="Group-2" transform="translate(133.000000, 35.000000)">
                <g id="Group" transform="translate(7.500000, 0.000000)">
                    <path d="M95.25,0 L92.072,7.441 L87.3661318,7.44140625 L87.3661318,13.3945312 L89.529,13.394 L86.9868091,19.3476562 L37.5319853,19.3476562 L37.5319853,15.8334488 L31.1986172,15.3834064 L31.1986172,19.3476562 L13.0916555,19.3476562 L14.8502924,15.3834064 L9.30644319,15.0787451 L8.09950934,19.3476562 L0,19.3476562 L7.26302462,0 L95.25,0 Z M69.6274282,8.43359375 L58.7871094,8.43359375 L58.7871094,12.4023437 L69.6274282,12.4023437 L69.6274282,8.43359375 Z" id="Combined-Shape" fill="#E14500"></path>
                    <path d="M7.875,21.328125 L9.6796875,16.828125 L11.8125,16.828125 L10.0078125,21.328125 L21.375,21.328125 L24.6328125,13.171875 L24.140625,12.375 L25.265625,11.578125 L28.8515625,2.671875 L26.1328125,-1.828125 L5.7890625,-1.828125 L-3.4921875,21.328125 L7.875,21.328125 Z M6.0703125,18.65625 L0.4453125,18.65625 L7.59375,0.84375 L24.6328125,0.84375 L25.875,2.90625 L23.0859375,9.84375 L20.578125,11.625 L21.65625,13.40625 L19.5703125,18.65625 L13.9453125,18.65625 L14.7890625,16.59375 L13.3359375,14.15625 L7.875,14.15625 L6.0703125,18.65625 Z M18.1171875,8.34375 L19.2890625,5.15625 L11.4140625,5.15625 L10.265625,8.34375 L18.1171875,8.34375 Z M31.359375,21.328125 L32.5546875,18.328125 L34.6875,18.328125 L33.4921875,21.328125 L44.859375,21.328125 L54.1171875,-1.828125 L29.2734375,-1.828125 L19.9921875,21.328125 L31.359375,21.328125 Z M29.5546875,18.65625 L23.9296875,18.65625 L31.078125,0.84375 L50.1796875,0.84375 L43.0546875,18.65625 L37.4296875,18.65625 L38.625,15.65625 L30.75,15.65625 L29.5546875,18.65625 Z M40.9453125,9.84375 L42.2578125,6.65625 L34.359375,6.65625 L33.046875,9.84375 L40.9453125,9.84375 Z M65.9296875,21.328125 L70.3828125,10.171875 L60.796875,10.171875 L61.1484375,9.328125 L70.734375,9.328125 L75.1875,-1.828125 L52.7578125,-1.828125 L43.4765625,21.328125 L65.9296875,21.328125 Z M64.125,18.65625 L47.4140625,18.65625 L54.5625,0.84375 L71.25,0.84375 L68.9296875,6.65625 L59.34375,6.65625 L56.859375,12.84375 L66.4453125,12.84375 L64.125,18.65625 Z M87.0234375,21.328125 L90.8671875,11.671875 L87.28125,11.67225 L88.827,7.8285 L92.4140625,7.828125 L96.3046875,-1.828125 L73.828125,-1.828125 L64.546875,21.328125 L87.0234375,21.328125 Z M85.21875,18.65625 L68.484375,18.65625 L75.6328125,0.84375 L92.34375,0.84375 L90.609375,5.15625 L79.453125,5.15625 L78.3046875,8.34375 L85.734375,8.34375 L84.609375,11.15625 L77.109375,11.15625 L75.796875,14.34375 L86.9296875,14.34375 L85.21875,18.65625 Z" id="Race" fill="#000000" fill-rule="nonzero"></path>
                </g>
                <path d="M106.6875,21.1640625 L109.089844,15.1640625 L112.089844,15.1640625 L114.316406,9.5859375 L101.894531,9.5859375 L99.65625,15.1640625 L102.65625,15.1640625 L100.253906,21.1640625 L106.6875,21.1640625 Z M105.785156,19.828125 L102.222656,19.828125 L104.625,13.828125 L101.625,13.828125 L102.796875,10.921875 L112.347656,10.921875 L111.1875,13.828125 L108.1875,13.828125 L105.785156,19.828125 Z M121.429688,21.1640625 L126.058594,9.5859375 L113.636719,9.5859375 L108.996094,21.1640625 L121.429688,21.1640625 Z M120.527344,19.828125 L110.964844,19.828125 L114.539062,10.921875 L124.089844,10.921875 L120.527344,19.828125 Z M118.886719,16.921875 L120.117187,13.828125 L116.179688,13.828125 L114.9375,16.921875 L118.886719,16.921875 Z M117.984375,15.5859375 L116.90625,15.5859375 L117.082031,15.1640625 L118.148438,15.1640625 L117.984375,15.5859375 Z" id="to" stroke="#000000" stroke-width="0.5" fill="#000000" fill-rule="nonzero"></path>
                <path d="M42.375,46.828125 L44.765625,40.828125 L52.265625,40.828125 L55.28775,33.3285 L59.015625,33.328125 L62.90625,23.671875 L40.2890625,23.671875 L31.0078125,46.828125 L42.375,46.828125 Z M40.5703125,44.15625 L34.9453125,44.15625 L42.09375,26.34375 L58.9453125,26.34375 L57.2109375,30.65625 L45.9140625,30.65625 L44.765625,33.84375 L52.1953125,33.84375 L50.4609375,38.15625 L42.9609375,38.15625 L40.5703125,44.15625 Z M76.9921875,46.828125 L86.25,23.671875 L74.90625,23.671875 L70.1015625,35.671875 L67.9453125,35.671875 L72.75,23.671875 L61.40625,23.671875 L52.125,46.828125 L76.9921875,46.828125 Z M75.1875,44.15625 L56.0625,44.15625 L63.2109375,26.34375 L68.8125,26.34375 L64.0078125,38.34375 L71.90625,38.34375 L76.7109375,26.34375 L82.3125,26.34375 L75.1875,44.15625 Z M94.4765625,46.828125 L99.28125,34.828125 L105.28125,34.828125 L109.734375,23.671875 L84.890625,23.671875 L80.4140625,34.828125 L86.4140625,34.828125 L81.609375,46.828125 L94.4765625,46.828125 Z M92.671875,44.15625 L85.546875,44.15625 L90.3515625,32.15625 L84.3515625,32.15625 L86.6953125,26.34375 L105.796875,26.34375 L103.476563,32.15625 L97.4765625,32.15625 L92.671875,44.15625 Z M123.960938,46.828125 L133.21875,23.671875 L121.875,23.671875 L117.070313,35.671875 L114.914063,35.671875 L119.71875,23.671875 L108.375,23.671875 L99.09375,46.828125 L123.960938,46.828125 Z M122.15625,44.15625 L103.03125,44.15625 L110.179688,26.34375 L115.78125,26.34375 L110.976563,38.34375 L118.875,38.34375 L123.679688,26.34375 L129.28125,26.34375 L122.15625,44.15625 Z M133.945313,46.828125 L135.75,42.328125 L137.882813,42.328125 L136.078125,46.828125 L147.445313,46.828125 L150.703125,38.671875 L150.210938,37.875 L151.335938,37.078125 L154.921875,28.171875 L152.203125,23.671875 L131.859375,23.671875 L122.578125,46.828125 L133.945313,46.828125 Z M132.140625,44.15625 L126.515625,44.15625 L133.664063,26.34375 L150.703125,26.34375 L151.945313,28.40625 L149.15625,35.34375 L146.648438,37.125 L147.726563,38.90625 L145.640625,44.15625 L140.015625,44.15625 L140.859375,42.09375 L139.40625,39.65625 L133.945313,39.65625 L132.140625,44.15625 Z M144.1875,33.84375 L145.359375,30.65625 L137.484375,30.65625 L136.335938,33.84375 L144.1875,33.84375 Z M168.539063,46.828125 L172.382813,37.171875 L168.79725,37.17225 L170.343,33.3285 L173.929688,33.328125 L177.820313,23.671875 L155.34375,23.671875 L146.0625,46.828125 L168.539063,46.828125 Z M166.734375,44.15625 L150,44.15625 L157.148438,26.34375 L173.859375,26.34375 L172.125,30.65625 L160.96875,30.65625 L159.820313,33.84375 L167.25,33.84375 L166.125,36.65625 L158.625,36.65625 L157.3125,39.84375 L168.445313,39.84375 L166.734375,44.15625 Z" id="future" fill="#000000" fill-rule="nonzero"></path>
                <path d="M7.6875,35.4140625 L10.0898438,29.4140625 L13.0898438,29.4140625 L15.3164062,23.8359375 L2.89453125,23.8359375 L0.65625,29.4140625 L3.65625,29.4140625 L1.25390625,35.4140625 L7.6875,35.4140625 Z M6.78515625,34.078125 L3.22265625,34.078125 L5.625,28.078125 L2.625,28.078125 L3.796875,25.171875 L13.3476562,25.171875 L12.1875,28.078125 L9.1875,28.078125 L6.78515625,34.078125 Z M15.6796875,35.4140625 L16.5820312,33.1640625 L17.6484375,33.1640625 L16.7460938,35.4140625 L22.4296875,35.4140625 L27.0585938,23.8359375 L21.3867188,23.8359375 L20.1796875,26.8359375 L19.1132812,26.8359375 L20.3203125,23.8359375 L14.6367188,23.8359375 L9.99609375,35.4140625 L15.6796875,35.4140625 Z M14.7773438,34.078125 L11.9648438,34.078125 L15.5390625,25.171875 L18.3398438,25.171875 L17.1328125,28.171875 L21.0820312,28.171875 L22.2890625,25.171875 L25.0898438,25.171875 L21.5273438,34.078125 L18.7148438,34.078125 L19.6171875,31.828125 L15.6796875,31.828125 L14.7773438,34.078125 Z M32.9765625,35.4140625 L34.8984375,30.5859375 L33.105,30.5865 L33.879,28.66425 L35.671875,28.6640625 L37.6171875,23.8359375 L26.3789062,23.8359375 L21.7382812,35.4140625 L32.9765625,35.4140625 Z M32.0742188,34.078125 L23.7070312,34.078125 L27.28125,25.171875 L35.6367188,25.171875 L34.7695312,27.328125 L29.1914062,27.328125 L28.6171875,28.921875 L32.3320312,28.921875 L31.7695312,30.328125 L28.0195312,30.328125 L27.3632812,31.921875 L32.9296875,31.921875 L32.0742188,34.078125 Z" id="the" stroke="#000000" stroke-width="0.5" fill="#000000" fill-rule="nonzero"></path>
            </g>
        </g>
    </g>
</svg>